<?xml version="1.0" encoding="UTF-8"?>
<svg width="16px" height="16px" viewBox="0 0 16 16" version="1.1" xmlns="http://www.w3.org/2000/svg" xmlns:xlink="http://www.w3.org/1999/xlink">
      <g id="Page-1" stroke="none" stroke-width="1" fill-rule="evenodd">
        <path d="M14.615698,0.25 C14.9542413,0.25 15.2406968,0.360675977 15.475073,0.58203125 C15.7094491,0.803386523 15.8266355,1.08333164 15.8266355,1.421875 L15.8266355,13.9609375 C15.8266355,14.2994809 15.7094491,14.598957 15.475073,14.859375 C15.2406968,15.119793 14.9542413,15.25 14.615698,15.25 L2.11569796,15.25 C1.7771546,15.25 1.47767843,15.119793 1.21726046,14.859375 C0.956842489,14.598957 0.826635457,14.2994809 0.826635457,13.9609375 L0.826635457,1.421875 C0.826635457,1.08333164 0.950332137,0.803386523 1.19772921,0.58203125 C1.44512628,0.360675977 1.7511128,0.25 2.11569796,0.25 L14.615698,0.25 Z M5.47507296,12.75 L5.47507296,6.0703125 L3.32663546,6.0703125 L3.32663546,12.75 L5.47507296,12.75 Z M3.63913546,4.7421875 C3.84746983,4.95052187 4.1209046,5.0546875 4.45944796,5.0546875 C4.79799132,5.0546875 5.07793643,4.94401152 5.29929171,4.72265625 C5.52064698,4.50130098 5.63132296,4.23437656 5.63132296,3.921875 C5.63132296,3.58333164 5.52715733,3.30338652 5.31882296,3.08203125 C5.11048858,2.86067598 4.83705382,2.75 4.49851046,2.75 C4.1599671,2.75 3.88002198,2.86067598 3.65866671,3.08203125 C3.43731143,3.30338652 3.32663546,3.58333164 3.32663546,3.921875 C3.32663546,4.23437656 3.43080108,4.50781133 3.63913546,4.7421875 Z M13.3266355,12.75 L13.3266355,8.84375 C13.3266355,7.88020352 13.0987732,7.15104414 12.6430417,6.65625 C12.1873103,6.16145586 11.5948683,5.9140625 10.865698,5.9140625 C10.0844441,5.9140625 9.43340889,6.27864219 8.91257296,7.0078125 L8.91257296,6.0703125 L6.76413546,6.0703125 L6.76413546,12.75 L8.91257296,12.75 L8.91257296,8.9609375 C8.91257296,8.70051953 8.93861436,8.51822969 8.99069796,8.4140625 C9.19903233,7.89322656 9.56361202,7.6328125 10.084448,7.6328125 C10.8136183,7.6328125 11.178198,8.11457852 11.178198,9.078125 L11.178198,12.75 L13.3266355,12.75 Z" fill="white"></path>
      </g>
    </svg>