<?xml version="1.0" encoding="UTF-8"?>
<svg width="21px" height="16px" viewBox="0 0 21 16" version="1.1" xmlns="http://www.w3.org/2000/svg" xmlns:xlink="http://www.w3.org/1999/xlink">
    <g id="Page-1" stroke="none" stroke-width="1" fill="none" fill-rule="evenodd">
        <path d="M20.3447768,5.24552472 L20.3447768,14.1071424 C20.3447768,15.0892865 19.5412044,15.8928588 18.5590604,15.8928588 L2.13046939,15.8928588 C1.14832537,15.8928588 0.344752979,15.0892865 0.344752979,14.1071424 L0.344752979,5.24552472 C0.679574806,5.61382874 1.05903954,5.93748984 1.47198647,6.21650803 C3.32466725,7.47767024 5.19966948,8.73883246 7.01886808,10.066959 C7.9563692,10.7589242 9.11708486,11.6071395 10.3336042,11.6071395 L10.3559256,11.6071395 C11.5724449,11.6071395 12.7331606,10.7589242 13.6706617,10.066959 C15.4898603,8.74999319 17.3648626,7.47767024 19.2287041,6.21650803 C19.6304903,5.93748984 20.009955,5.61382874 20.3447768,5.24552472 Z M20.3447768,1.96427081 C20.3447768,3.2142723 19.4184364,4.34150579 18.4362924,5.02231017 C16.6952189,6.22766875 14.9429847,7.43302733 13.2130719,8.64954664 C12.4876246,9.15177938 11.2599446,10.1785663 10.3559256,10.1785663 L10.3336042,10.1785663 C9.42958524,10.1785663 8.2019052,9.15177938 7.47645791,8.64954664 C5.74654513,7.43302733 3.9943109,6.22766875 2.26439812,5.02231017 C1.47198647,4.48659525 0.344752979,3.22543303 0.344752979,2.20980682 C0.344752979,1.11605552 0.936271541,0.178554399 2.13046939,0.178554399 L18.5590604,0.178554399 C19.5300437,0.178554399 20.3447768,0.982126785 20.3447768,1.96427081 Z" fill="white"></path>
    </g>
</svg>