<?xml version="1.0" encoding="UTF-8"?>
<svg width="19px" height="18px" viewBox="0 0 19 18" version="1.1" xmlns="http://www.w3.org/2000/svg" xmlns:xlink="http://www.w3.org/1999/xlink">
    <g id="Page-1" stroke="none" stroke-width="1" fill="none" fill-rule="evenodd">
        <path d="M3.2474892,2.8348044 C4.96624779,1.06396221 7.03653959,0.178554399 9.4584267,0.178554399 C11.8803138,0.178554399 13.9440953,1.05745186 15.6498329,2.81527315 C17.3555706,4.57309444 18.2084267,6.6889587 18.2084267,9.1629294 C18.2084267,11.1160642 17.6485365,12.8738591 16.5287392,14.4363669 C15.4089419,15.9988747 13.9766646,17.0795931 12.2318642,17.6785544 L12.0756142,17.6785544 C11.7631126,17.6785544 11.6068642,17.522306 11.6068642,17.2098044 C11.6068642,17.1837626 11.6133745,16.8907968 11.6263954,16.3308981 C11.6394163,15.7709995 11.6459267,15.2566817 11.6459267,14.7879294 C11.6459267,14.0327173 11.4375954,13.4728271 11.0209267,13.1082419 C12.2188494,12.9519911 13.1888917,12.5678804 13.9310829,11.9558981 C14.6732742,11.3439159 15.0443642,10.2566872 15.0443642,8.6941794 C15.0443642,7.75667471 14.744888,6.94939112 14.1459267,6.2723044 C14.4063447,5.51709229 14.3803033,4.7228294 14.0678017,3.8894919 L13.8724892,3.8894919 C13.2735279,3.8894919 12.5313478,4.20198877 11.6459267,4.8269919 C10.8907146,4.61865752 10.1615552,4.5144919 9.4584267,4.5144919 C8.75529818,4.5144919 8.02613881,4.61865752 7.2709267,4.8269919 C6.3855056,4.20198877 5.64332553,3.8894919 5.0443642,3.8894919 L4.8490517,3.8894919 C4.53655014,4.7228294 4.51050873,5.51709229 4.7709267,6.2723044 C4.17196537,6.94939112 3.8724892,7.75667471 3.8724892,8.6941794 C3.8724892,10.2566872 4.23706889,11.3439159 4.9662392,11.9558981 C5.69540951,12.5678804 6.65894154,12.9519911 7.8568642,13.1082419 C7.57040443,13.3947017 7.38811459,13.7983435 7.3099892,14.3191794 C6.99748764,14.4754302 6.65894935,14.5535544 6.2943642,14.5535544 C5.64331928,14.5535544 5.13551185,14.2280368 4.7709267,13.5769919 C4.43238334,13.0040724 3.97665873,12.6915755 3.4037392,12.6394919 C2.85686146,12.6394919 2.84384076,12.8217817 3.3646767,13.1863669 C3.75530365,13.3947013 4.08082123,13.8374052 4.3412392,14.5144919 C4.36728099,14.6186591 4.41936381,14.7423558 4.4974892,14.8855856 C4.57561459,15.0288155 4.79045619,15.2176157 5.14202045,15.4519919 C5.49358471,15.6863681 5.91675756,15.8035544 6.4115517,15.8035544 C6.77613685,15.8035544 7.06259232,15.777513 7.2709267,15.7254294 L7.2709267,17.2488669 C7.2709267,17.5353267 7.12769896,17.6785544 6.8412392,17.6785544 L6.6849892,17.6785544 C4.91414701,17.0795931 3.47535932,16.0053851 2.36858295,14.4558981 C1.26180658,12.9064112 0.708426698,11.142106 0.708426698,9.1629294 C0.708426698,6.6889587 1.5547724,4.57960479 3.2474892,2.8348044 Z" fill="white"></path>
    </g>
</svg>